# xmcd CD database file
# Copyright (C) 1997 Ti Kan
# 
# Track frame offsets:
#     150
#     12647
#     30760
#     48512
#     61555
#     77692
#     90112
#     104385
#     117142
#     134297
#     142210
#     155755
#     169162
#     182132
#     199775
# 
# Disc length: 2898 seconds
# 
# Revision: 1
# Processed by: cddbd v1.4b41PL1 Copyright (c) Steve Scherf et al.
# Submitted via: DiscPlay 4.0.4
# 
DISCID=bf0b500f
DTITLE=The Cruel Sea - This Is What It Is
DYEAR=1900
DGENRE=
TTITLE0=This Is What It Is
TTITLE1=Just A Man
TTITLE2=Anybody But You
TTITLE3=Too Fast For Me
TTITLE4=Teach Me
TTITLE5=Hard Candy
TTITLE6=Too Late To Turn Back
TTITLE7=Baby Meet
TTITLE8=Save Me
TTITLE9=Gimme Back My Thing
TTITLE10=Better Get  A Lawyer
TTITLE11=Brain Wash
TTITLE12=Three Legged Dog
TTITLE13=The Lot
TTITLE14=Strange Thing
EXTD=
EXTT0=
EXTT1=
EXTT2=
EXTT3=
EXTT4=
EXTT5=
EXTT6=
EXTT7=
EXTT8=
EXTT9=
EXTT10=
EXTT11=
EXTT12=
EXTT13=
EXTT14=
PLAYORDER=
